<?xml version="1.0" encoding="UTF-8"?>
<!DOCTYPE svg PUBLIC "-//W3C//DTD SVG 1.1//EN" "http://www.w3.org/Graphics/SVG/1.1/DTD/svg11.dtd">
<!-- Creator: CorelDRAW X7 -->
<svg xmlns="http://www.w3.org/2000/svg" xml:space="preserve" width="14.2717in" height="12.3031in" version="1.1" style="shape-rendering:geometricPrecision; text-rendering:geometricPrecision; image-rendering:optimizeQuality; fill-rule:evenodd; clip-rule:evenodd"
viewBox="0 0 14272 12303"
 xmlns:xlink="http://www.w3.org/1999/xlink">
 <defs>
  <style type="text/css">
   <![CDATA[
    .fil1 {fill:black}
    .fil4 {fill:#00ABEB}
    .fil0 {fill:#51A54A}
    .fil2 {fill:#FAEB1F}
    .fil3 {fill:white}
    .fil5 {fill:black;fill-rule:nonzero}
   ]]>
  </style>
 </defs>
 <g id="Layer_x0020_1">
  <metadata id="CorelCorpID_0Corel-Layer"/>
  <g id="_1906935874320">
   <rect class="fil0" x="2853" y="3164" width="8566" height="1688"/>
   <path class="fil1" d="M5905 10043c407,-361 827,117 1231,117 401,0 829,-478 1230,-117 -189,134 -941,449 -1230,449 -288,0 -1043,-315 -1231,-449zm-1002 -625c192,52 230,180 540,187 288,6 352,-72 555,-174 482,-243 691,174 1138,174 448,0 662,-423 1147,-169 199,104 274,178 559,168 298,-10 341,-136 527,-186 -153,113 -308,220 -474,325 -188,118 -324,269 -512,161 -591,-339 -807,131 -1247,131 -445,0 -657,-475 -1257,-126 -174,102 -334,-59 -510,-171 -168,-106 -316,-209 -466,-320zm3708 36c-277,-79 -333,-258 -748,-214 -316,34 -385,236 -727,236 -344,0 -413,-206 -739,-237 -416,-39 -466,144 -747,218 -376,99 -505,-107 -758,-186 -224,-70 -171,21 -355,-132 -61,-51 -220,-174 -255,-224 421,-379 882,301 1462,95 241,-86 353,-262 717,-184 261,56 316,227 675,227 364,0 419,-179 686,-230 369,-70 467,105 716,190 573,195 1033,-474 1452,-98 -35,50 -203,181 -262,231 -166,143 -156,61 -358,128 -247,82 -388,286 -759,180zm-4754 -959c380,-33 447,-256 819,-241 343,13 403,251 821,241 392,-10 448,-252 833,-241 345,9 409,241 806,241 400,0 463,-237 820,-242 373,-4 431,232 818,242 423,10 481,-233 835,-242 361,-8 430,209 815,251l-330 312c-871,-408 -894,276 -1504,77 -268,-88 -341,-256 -738,-207 -311,39 -376,235 -716,235 -344,0 -409,-201 -728,-236 -394,-43 -461,121 -726,208 -610,199 -633,-485 -1513,-68l-312 -330zm-565 -716c353,144 538,283 954,39 449,-263 591,-58 939,76 478,184 649,-111 960,-178 461,-99 554,227 991,227 437,0 541,-334 1002,-224 307,72 488,361 959,171 352,-142 490,-330 937,-67 408,240 607,95 946,-44 -47,102 -208,304 -280,394 -127,159 -156,260 -455,161 -344,-113 -548,-376 -1027,-100 -537,309 -614,40 -1017,-78 -525,-155 -651,210 -1065,210 -415,0 -549,-371 -1076,-207 -415,129 -472,380 -1015,70 -479,-274 -692,5 -1028,109 -300,93 -326,-15 -451,-172 -73,-92 -229,-288 -274,-387zm-326 -636c435,7 552,365 1080,210 410,-120 465,-384 1010,-80 498,279 674,17 1033,-99 472,-152 602,210 1047,210 446,0 582,-368 1057,-206 371,126 537,370 1032,90 536,-302 614,-22 1012,88 525,146 635,-206 1069,-213 -33,146 -146,419 -268,467 -185,72 -301,189 -526,200 -467,24 -597,-394 -1161,-194 -200,71 -261,190 -534,195 -284,5 -349,-105 -544,-186 -533,-221 -721,186 -1137,186 -415,0 -615,-413 -1147,-181 -196,85 -262,190 -548,181 -264,-9 -334,-132 -530,-198 -567,-193 -687,228 -1165,196 -199,-13 -350,-131 -522,-203 -95,-39 -230,-339 -258,-463zm2069 -29c-480,-269 -693,18 -1028,117 -455,135 -592,-224 -1098,-216 -68,-284 -247,-446 130,-422 247,16 337,154 542,211 587,163 713,-327 1235,-194 471,121 501,421 1142,71 531,-290 705,151 1178,151 479,0 644,-446 1187,-146 635,351 688,28 1144,-79 521,-122 649,367 1235,194 204,-61 286,-196 545,-209 359,-18 181,148 116,423 -505,-8 -654,358 -1109,213 -340,-109 -549,-381 -1026,-109 -553,314 -599,54 -1016,-71 -535,-161 -659,208 -1076,208 -416,0 -554,-376 -1087,-205 -430,138 -456,376 -1014,63zm-2259 -638c-31,-337 -138,-478 277,-440 240,22 331,161 540,214 590,150 697,-328 1225,-197 472,117 494,423 1138,71 533,-291 704,150 1180,150 479,0 647,-446 1189,-145 622,346 676,37 1129,-76 530,-132 645,356 1236,194 207,-57 295,-193 542,-212 402,-30 295,108 264,441 -661,-51 -677,285 -1150,217 -343,-49 -565,-417 -1082,-149 -602,313 -538,125 -1031,-44 -529,-182 -684,201 -1097,201 -412,0 -581,-390 -1107,-198 -522,191 -427,339 -1031,36 -520,-261 -735,112 -1085,156 -470,59 -476,-270 -1137,-219zm-27 -988l8774 0 0 444c-689,-87 -661,269 -1157,212 -344,-40 -574,-416 -1080,-162 -606,304 -504,168 -1036,-28 -541,-201 -699,201 -1127,195 -407,-5 -576,-398 -1112,-191 -546,210 -429,316 -1034,19 -505,-246 -736,134 -1084,168 -498,49 -469,-311 -1144,-213l0 -444zm959 -694l926 0 12 282 1034 0 4 -282 927 0 4 282 1043 -2 6 -280 925 3 10 279 1035 0 6 -282 926 0 7 282 786 -1c154,-4 164,-33 164,107l-1062 -6 -2 -275 -716 0 0 282 -1260 -1 0 -282 -717 6 -2 277 -1258 0 0 -282 -718 0 0 282 -1259 -5 -2 -277 -716 0 0 275c-103,21 -669,5 -856,7 -164,2 -206,44 -206,-104l954 -3 5 -282zm-162 -164l1252 2 6 280 713 -5 1 -277 1259 0 3 282 714 -1 1 -281 1259 0 2 282 715 0 6 -282 1253 1 5 281c143,0 286,0 429,0 210,0 359,-56 359,104l-898 -1 -5 -278 -1041 0 0 282 -931 0 -2 -282 -1044 6 1 276 -933 0 0 -282 -1045 2 -1 280 -931 -2 0 -280 -1045 0 -1 278c-142,16 -348,4 -497,4 -422,0 -401,47 -401,-106l790 -1 7 -282zm-21 -483c15,-31 490,-530 556,-592 476,-446 205,-391 763,-391l4597 0c297,0 324,-54 479,106l827 877 672 707 -628 0 -6 -282 -1370 1 -1 281 -601 0 -4 -282 -1372 7 -1 275 -600 0 -3 -281 -1372 3 -2 278 -601 0 -5 -282 -1369 0 -7 282 -624 -3 672 -704zm-777 -3991l8776 0 -5 4615c-148,-203 -551,-580 -744,-787 -250,-268 -501,-514 -743,-784 -204,-226 -218,-162 -604,-162l-4598 0c-395,0 -389,-61 -596,170 -266,296 -1359,1395 -1484,1563l-2 -4615zm8852 -129l-8928 0c-101,95 -46,3296 -46,3736 0,1111 -137,2587 262,3525 380,894 1093,1564 1717,2061 389,311 1826,1266 2531,1266 702,0 2135,-950 2523,-1259 635,-506 1335,-1163 1726,-2067 397,-921 261,-2416 261,-3512 0,-441 55,-3655 -46,-3750z"/>
   <path class="fil2" d="M2750 4771c125,-168 1218,-1267 1484,-1563 207,-231 201,-170 596,-170l4597 0c387,0 401,-64 604,162 243,270 494,516 744,784 193,207 596,584 744,787l5 -4615 -8776 0 2 4615z"/>
   <path class="fil3" d="M2748 5932c676,-98 647,262 1145,213 348,-34 579,-414 1084,-168 605,297 488,191 1034,-19 536,-207 704,186 1112,191 428,6 586,-396 1127,-195 532,196 430,332 1036,28 506,-254 736,122 1080,162 496,57 468,-299 1157,-212l0 -444 -8774 0 -1 444z"/>
   <path class="fil4" d="M2776 6476c661,-51 667,278 1136,219 350,-44 565,-417 1086,-156 604,303 509,155 1031,-36 526,-192 695,198 1106,198 414,0 568,-383 1097,-201 494,169 430,357 1032,44 517,-268 738,100 1082,149 473,68 489,-268 1149,-217 31,-333 139,-471 -263,-441 -248,19 -335,155 -543,212 -591,162 -706,-326 -1236,-194 -453,113 -506,422 -1128,76 -542,-301 -710,145 -1190,145 -476,0 -646,-441 -1180,-150 -643,352 -666,46 -1137,-71 -528,-131 -635,347 -1225,197 -209,-53 -301,-192 -540,-214 -415,-38 -309,103 -277,440z"/>
   <path class="fil3" d="M2909 7015c506,-8 643,351 1098,216 335,-99 548,-386 1028,-117 558,313 584,75 1014,-63 533,-171 671,205 1087,205 417,0 541,-369 1076,-208 417,125 463,385 1016,71 477,-272 686,0 1026,109 455,145 604,-221 1109,-213 65,-275 243,-441 -116,-423 -259,13 -341,148 -545,209 -586,173 -713,-316 -1235,-194 -456,107 -509,430 -1144,79 -543,-300 -708,146 -1187,146 -473,0 -647,-441 -1178,-151 -641,350 -671,50 -1142,-71 -522,-133 -648,357 -1235,194 -205,-57 -295,-195 -542,-211 -377,-24 -198,138 -130,422z"/>
   <path class="fil4" d="M2966 7143c27,124 163,424 257,463 173,72 324,190 523,203 478,32 598,-389 1165,-196 196,66 266,189 530,198 286,9 352,-96 548,-181 532,-232 732,181 1147,181 416,0 604,-407 1137,-186 195,81 260,191 544,186 272,-5 334,-124 533,-195 565,-200 695,218 1161,194 226,-11 342,-128 527,-200 122,-48 235,-321 268,-467 -434,7 -544,359 -1069,213 -398,-110 -476,-390 -1012,-88 -495,280 -661,36 -1032,-90 -475,-162 -611,206 -1057,206 -445,0 -575,-362 -1047,-210 -360,116 -535,378 -1033,99 -545,-304 -600,-40 -1010,80 -528,155 -645,-203 -1080,-210z"/>
   <path class="fil3" d="M3292 7779c45,99 201,295 274,387 125,157 151,265 451,172 336,-104 548,-383 1028,-109 543,310 600,59 1015,-70 527,-164 661,207 1076,207 414,0 540,-365 1065,-210 403,118 480,387 1017,78 479,-276 683,-13 1026,100 300,99 328,-2 456,-161 72,-90 233,-292 280,-394 -339,139 -538,284 -946,44 -447,-263 -585,-75 -937,67 -471,190 -652,-99 -959,-171 -461,-110 -565,224 -1002,224 -437,0 -530,-326 -991,-227 -311,67 -482,362 -960,178 -348,-134 -490,-339 -939,-76 -416,244 -601,105 -954,-39z"/>
   <path class="fil4" d="M3852 8495l312 330c880,-417 903,267 1513,68 266,-87 333,-251 726,-208 319,35 385,236 728,236 340,0 406,-196 716,-235 398,-49 470,119 738,207 610,199 633,-485 1504,-77l330 -312c-385,-42 -454,-259 -815,-251 -354,9 -412,252 -834,242 -388,-10 -446,-246 -819,-242 -357,5 -419,242 -820,242 -397,0 -461,-232 -806,-241 -385,-11 -441,231 -832,241 -419,10 -478,-228 -822,-241 -371,-15 -439,208 -819,241z"/>
   <path class="fil3" d="M4282 8915c34,50 194,173 255,224 184,153 131,62 355,132 253,79 382,285 757,186 282,-74 331,-257 748,-218 326,31 394,237 739,237 341,0 411,-202 726,-236 416,-44 472,135 749,214 371,106 512,-98 758,-180 203,-67 193,15 359,-128 59,-50 227,-181 261,-231 -418,-376 -879,293 -1451,98 -249,-85 -347,-260 -716,-190 -267,51 -322,230 -686,230 -359,0 -414,-171 -675,-227 -364,-78 -476,98 -717,184 -580,206 -1041,-474 -1462,-95z"/>
   <path class="fil4" d="M4903 9418c150,111 298,214 466,320 176,112 336,273 510,171 600,-349 812,126 1257,126 440,0 656,-470 1247,-131 188,108 324,-43 512,-161 166,-105 321,-212 474,-325 -186,50 -229,176 -527,186 -286,10 -360,-64 -559,-168 -485,-254 -699,169 -1147,169 -447,0 -656,-417 -1138,-174 -203,102 -267,180 -555,174 -310,-7 -348,-135 -540,-187z"/>
   <path class="fil3" d="M3539 4912l-790 1c0,153 -21,106 401,106 149,0 355,12 497,-4l0 -278 1046 0 0 280 931 2 1 -280 1044 -2 1 282 933 0 -1 -276 1044 -6 2 282 931 0 0 -282 1041 0 5 278 898 1c0,-160 -149,-104 -359,-104 -143,0 -286,0 -429,0l-5 -281 -1253 -1 -7 282 -714 0 -2 -282 -1259 0 -1 281 -714 1 -3 -282 -1259 0 -1 277 -713 5 -6 -280 -1252 -2 -7 282z"/>
   <path class="fil3" d="M3703 5076l-955 3c1,148 43,106 207,104 187,-2 753,14 856,-7l0 -275 716 0 2 277 1259 5 0 -282 718 0 0 282 1258 0 2 -277 717 -6 0 282 1260 1 0 -282 716 0 2 275 1062 6c0,-140 -10,-111 -164,-107l-786 1 -7 -282 -926 0 -6 282 -1035 0 -10 -279 -925 -3 -6 280 -1043 2 -4 -282 -927 0 -4 282 -1034 0 -12 -282 -926 0 -5 282z"/>
   <path class="fil1" d="M2092 10800l10127 0 -39 0 -1 1347 -10071 0 -15 0 -1 -1347zm12155 -451l0 12 -932 724 932 720 0 16 -24 57 -1913 2 -55 397 -10238 0 -54 -396 -1914 -3 -24 -58 0 -15 930 -724 -930 -720 0 -13 25 -60 2673 -1c21,31 10,330 10,390l8801 -2c1,-61 -7,-355 15,-388l2672 1 26 61zm-2589 114c77,29 292,167 352,214l-351 1 -1 -215zm-9396 213c60,-46 275,-184 352,-213l-4 215 -348 -2zm9575 -267l2137 0 -847 686 854 658 -1672 4c-31,-172 -9,-694 -6,-898 5,-300 -319,-271 -466,-450zm-11540 0l2137 0 -462 297 -4 1051 -1675 0c93,-119 812,-580 825,-666 16,-111 -727,-544 -821,-682z"/>
   <path class="fil2" d="M11837 10409c147,179 471,150 466,450 -3,204 -25,726 6,898l1672 -4 -854 -658 847 -686 -2137 0z"/>
   <path class="fil2" d="M297 10409c94,138 837,571 821,682 -13,86 -732,547 -825,666l1675 0 4 -1051 462 -297 -2137 0z"/>
   <path class="fil3" d="M5905 10043c188,134 943,449 1231,449 289,0 1041,-315 1231,-449 -401,-361 -830,117 -1231,117 -404,0 -824,-478 -1231,-117z"/>
   <path class="fil2" d="M11664 10669l351 0c-60,-48 -276,-186 -352,-214l1 214z"/>
   <path class="fil2" d="M2257 10667l349 2 3 -214c-77,28 -292,166 -352,212z"/>
   <rect class="fil2" x="2092" y="10800" width="10087" height="1347"/>
   <path class="fil5" d="M2791 11448l0 387 -49 0c-4,-27 -9,-55 -16,-83 -33,63 -76,94 -127,94 -61,0 -109,-34 -142,-101 -34,-68 -51,-155 -51,-262 0,-115 18,-207 54,-277 36,-70 85,-105 147,-105 52,0 94,23 126,68 32,45 51,105 58,180l-103 21c-9,-88 -35,-131 -81,-131 -29,0 -52,21 -67,62 -15,42 -23,101 -23,178 0,74 8,131 25,170 16,39 40,59 70,59 20,0 37,-10 53,-29 15,-20 23,-52 23,-95l-88 0 0 -136 191 0z"/>
   <polygon id="1" class="fil5" points="3211,11250 2989,11250 2989,11398 3163,11398 3163,11534 2989,11534 2989,11692 3211,11692 3211,11835 2878,11835 2878,11112 3211,11112 "/>
   <polygon id="2" class="fil5" points="3482,11835 3368,11245 3368,11835 3277,11835 3277,11112 3447,11112 3528,11545 3614,11112 3785,11112 3785,11835 3675,11835 3675,11245 3558,11835 "/>
   <path id="3" class="fil5" d="M4109 11112l145 723 -118 0 -29 -150 -150 0 -30 150 -95 0 149 -723 128 0zm-126 440l99 0 -49 -253 -50 253z"/>
   <polygon id="4" class="fil5" points="4664,11112 4664,11835 4557,11835 4557,11537 4411,11537 4411,11835 4304,11835 4304,11112 4411,11112 4411,11394 4557,11394 4557,11112 "/>
   <path id="5" class="fil5" d="M5043 11550l0 285 -110 0 0 -723 205 0c38,0 69,7 91,20 23,14 42,39 57,76 15,36 23,77 23,121 0,87 -27,150 -81,188l86 318 -121 0 -72 -285 -78 0zm0 -308l0 184 67 0c22,0 38,-2 48,-7 10,-5 19,-15 27,-32 7,-16 11,-35 11,-56 0,-20 -4,-38 -11,-54 -8,-16 -17,-26 -26,-29 -9,-4 -26,-6 -51,-6l-65 0z"/>
   <polygon id="6" class="fil5" points="5502,11112 5502,11835 5393,11835 5393,11112 "/>
   <path id="7" class="fil5" d="M5707 11566l0 269 -111 0 0 -723 184 0c41,0 72,7 94,20 21,14 41,38 58,73 17,35 26,78 26,129 0,35 -5,70 -14,104 -9,34 -22,61 -39,80 -16,19 -32,32 -48,39 -15,6 -40,9 -73,9l-77 0zm-3 -131l70 0c28,0 46,-10 57,-29 11,-20 17,-42 17,-67 0,-29 -6,-53 -18,-70 -13,-17 -31,-26 -56,-26l-70 0 0 192z"/>
   <path id="8" class="fil5" d="M6220 11112l145 723 -117 0 -29 -150 -150 0 -30 150 -96 0 150 -723 127 0zm-125 440l98 0 -48 -253 -50 253z"/>
   <polygon id="9" class="fil5" points="6776,11112 6776,11835 6668,11835 6668,11537 6523,11537 6523,11835 6416,11835 6416,11112 6523,11112 6523,11394 6668,11394 6668,11112 "/>
   <path id="10" class="fil5" d="M7605 11112l-117 723 -107 0 -78 -478 -74 478 -107 0 -119 -723 111 0 64 441c1,2 2,10 4,23 1,6 2,13 4,23l76 -487 101 0 79 487c2,-9 4,-25 7,-46l66 -441 90 0z"/>
   <polygon id="11" class="fil5" points="7765,11112 7765,11835 7656,11835 7656,11112 "/>
   <path id="12" class="fil5" d="M7858 11112l218 0c38,0 68,7 87,22 20,15 36,36 49,64 12,27 19,61 19,101 0,80 -28,133 -84,160 32,12 57,34 73,68 16,33 24,70 24,109 0,54 -13,101 -39,140 -27,39 -70,59 -129,59l-218 0 0 -723zm110 128l0 158 82 0c30,0 49,-9 57,-28 8,-18 12,-36 12,-53 0,-18 -3,-34 -10,-47 -6,-14 -13,-22 -21,-25 -8,-4 -23,-5 -46,-5l-74 0zm0 288l0 173 83 0c29,0 49,-8 61,-24 12,-15 17,-36 17,-64 0,-23 -5,-43 -17,-60 -11,-16 -30,-25 -56,-25l-88 0z"/>
   <path id="13" class="fil5" d="M8544 11112l146 723 -118 0 -29 -150 -150 0 -30 150 -95 0 149 -723 127 0zm-125 440l99 0 -49 -253 -50 253z"/>
   <path id="14" class="fil5" d="M9277 11112l-116 723 -108 0 -77 -478 -74 478 -107 0 -120 -723 112 0 64 441c0,2 1,10 4,23 1,6 2,13 3,23l77 -487 101 0 79 487c1,-9 4,-25 6,-46l67 -441 89 0z"/>
   <path id="15" class="fil5" d="M9538 11112l146 723 -118 0 -29 -150 -150 0 -30 150 -96 0 150 -723 127 0zm-125 440l99 0 -49 -253 -50 253z"/>
   <polygon id="16" class="fil5" points="10114,11835 10001,11245 10001,11835 9909,11835 9909,11112 10079,11112 10161,11545 10247,11112 10417,11112 10417,11835 10307,11835 10307,11245 10190,11835 "/>
   <path id="17" class="fil5" d="M10878 11112l0 450c0,73 -5,127 -16,162 -10,36 -30,65 -59,88 -29,22 -66,34 -111,34 -44,0 -80,-10 -107,-31 -26,-20 -46,-49 -59,-87 -13,-38 -20,-93 -20,-166l0 -450 118 0 0 450c0,39 2,68 7,86 4,19 12,33 25,44 12,11 28,16 47,16 20,0 37,-5 50,-16 12,-10 21,-24 25,-42 4,-17 7,-47 7,-88l0 -450 93 0z"/>
   <polygon id="18" class="fil5" points="11072,11112 11072,11450 11219,11112 11323,11112 11211,11369 11351,11835 11231,11835 11138,11522 11072,11669 11072,11835 10965,11835 10965,11112 "/>
   <polygon id="19" class="fil5" points="11708,11112 11708,11255 11593,11255 11593,11835 11482,11835 11482,11255 11366,11255 11366,11112 "/>
   <polygon id="20" class="fil5" points="11865,11112 11865,11835 11755,11835 11755,11112 "/>
  </g>
 </g>
</svg>
