<?xml version="1.0" standalone="no"?>
<!DOCTYPE svg PUBLIC "-//W3C//DTD SVG 20010904//EN"
 "http://www.w3.org/TR/2001/REC-SVG-20010904/DTD/svg10.dtd">
<svg version="1.0" xmlns="http://www.w3.org/2000/svg"
 width="390.000000pt" height="130.000000pt" viewBox="0 0 390.000000 130.000000"
 preserveAspectRatio="xMidYMid meet">

<g transform="translate(0.000000,130.000000) scale(0.100000,-0.100000)"
fill="#000000" stroke="none">
<path d="M1670 1021 c-5 -11 -10 -27 -10 -35 0 -20 35 -56 54 -56 38 0 62 70
34 98 -19 19 -66 15 -78 -7z"/>
<path d="M1598 835 c-9 -21 -8 -28 7 -45 25 -28 57 -22 69 12 19 54 -52 85
-76 33z"/>
<path d="M3020 650 l0 -180 25 0 c23 0 25 4 25 47 l0 47 49 -48 c40 -39 53
-47 79 -44 l32 3 -61 62 -61 63 30 37 c17 21 42 49 56 62 34 32 33 41 -6 41
-25 0 -41 -10 -75 -47 l-42 -48 -1 93 c0 91 0 92 -25 92 l-25 0 0 -180z"/>
<path d="M3254 816 c-9 -24 3 -46 26 -46 17 0 21 5 18 27 -3 31 -34 44 -44 19z"/>
<path d="M1673 758 c-66 -72 -79 -136 -37 -171 94 -78 97 -82 97 -125 0 -23
-8 -54 -18 -69 -16 -24 -16 -26 -2 -14 9 7 28 37 43 67 37 76 30 113 -36 176
-40 38 -50 54 -50 81 0 18 7 43 16 55 20 28 13 28 -13 0z"/>
<path d="M2813 745 c-76 -33 -96 -144 -38 -205 33 -34 85 -48 121 -31 29 13
33 -2 8 -37 -20 -28 -68 -29 -91 -2 -19 22 -31 24 -52 11 -32 -21 46 -91 102
-91 17 0 41 12 65 34 l37 34 3 147 3 146 -38 -2 c-21 -1 -49 1 -63 4 -14 4
-39 1 -57 -8z m85 -65 c26 -24 29 -66 6 -98 -31 -45 -114 -15 -114 42 0 32 37
76 64 76 12 0 32 -9 44 -20z"/>
<path d="M1910 604 l0 -134 25 0 c25 0 25 1 25 84 0 69 4 88 21 110 12 15 30
26 44 26 14 0 32 -11 44 -26 17 -22 21 -41 21 -110 0 -83 0 -84 25 -84 25 0
25 1 25 86 0 147 -31 184 -154 182 l-76 -1 0 -133z"/>
<path d="M2232 715 c-40 -34 -56 -76 -49 -132 7 -65 58 -113 118 -113 22 0 49
5 60 10 13 7 19 7 19 0 0 -5 11 -10 25 -10 l25 0 0 135 0 135 -24 0 c-13 0
-26 -5 -28 -11 -3 -9 -9 -9 -25 0 -37 19 -89 13 -121 -14z m119 -54 c38 -39
38 -74 -1 -113 -25 -24 -36 -29 -58 -24 -74 18 -85 115 -17 154 31 18 44 14
76 -17z"/>
<path d="M2480 604 l0 -134 25 0 c25 0 25 1 25 90 0 77 3 93 20 110 25 25 51
25 81 1 21 -17 24 -29 27 -110 4 -88 5 -91 28 -91 23 0 24 2 24 80 0 91 -15
137 -55 168 -22 18 -40 21 -101 20 l-74 -1 0 -133z"/>
<path d="M3250 605 l0 -135 25 0 25 0 0 135 0 135 -25 0 -25 0 0 -135z"/>
<path d="M3373 718 c-50 -55 -36 -106 39 -137 50 -21 57 -35 24 -55 -13 -9
-20 -7 -30 7 -7 9 -25 17 -39 17 -30 0 -28 -19 6 -57 39 -44 119 -22 132 35
10 47 -9 78 -59 97 -31 12 -46 24 -46 35 0 24 26 33 44 15 14 -14 66 -21 66
-10 0 16 -31 63 -45 69 -33 12 -72 6 -92 -16z"/>
<path d="M1913 315 c0 -33 2 -49 4 -37 l5 24 24 -23 c13 -12 24 -18 24 -12 0
5 -9 18 -20 28 -17 16 -18 21 -7 34 27 31 30 46 4 23 l-25 -24 -5 24 c-2 12
-4 -4 -4 -37z"/>
<path d="M2023 344 c-15 -24 -15 -29 -2 -53 23 -42 89 -37 89 6 0 11 -5 9 -18
-7 -21 -26 -57 -21 -67 9 -15 48 36 79 67 41 12 -14 18 -17 18 -8 0 43 -61 51
-87 12z"/>
<path d="M2162 363 c13 -3 18 -18 21 -56 l3 -52 2 52 c2 40 6 53 20 56 9 3 -1
5 -23 5 -22 0 -32 -2 -23 -5z"/>
<path d="M2263 315 c-12 -30 -17 -55 -12 -55 5 0 9 7 9 15 0 28 31 30 51 4 18
-23 18 -21 -1 30 -10 29 -21 55 -23 57 -2 3 -13 -20 -24 -51z m37 3 c0 -5 -6
-8 -14 -8 -9 0 -12 7 -9 21 4 16 8 17 14 7 5 -7 9 -16 9 -20z"/>
<path d="M2440 316 c0 -53 1 -56 25 -56 24 0 51 31 38 44 -3 3 -6 18 -7 33 -1
23 -6 29 -28 31 -28 3 -28 2 -28 -52z m48 27 c2 -8 -5 -13 -17 -13 -12 0 -21
6 -21 16 0 18 31 15 38 -3z m0 -50 c-5 -26 -38 -29 -38 -4 0 15 6 21 21 21 14
0 19 -5 17 -17z"/>
<path d="M2557 318 c-9 -29 -15 -54 -13 -56 2 -2 7 6 11 17 8 27 42 27 50 0 4
-11 9 -19 11 -17 5 6 -29 108 -36 108 -3 0 -14 -23 -23 -52z m33 7 c0 -8 -4
-15 -10 -15 -5 0 -10 7 -10 15 0 8 5 15 10 15 6 0 10 -7 10 -15z"/>
<path d="M2661 313 c2 -54 2 -55 8 -18 l6 40 22 -40 22 -40 -1 60 c-1 53 -2
55 -7 20 l-6 -40 -14 33 c-22 52 -31 47 -30 -15z"/>
<path d="M2770 315 c0 -51 2 -55 23 -55 28 0 57 29 57 57 0 25 -30 53 -58 53
-20 0 -22 -5 -22 -55z m54 29 c9 -8 16 -22 16 -29 0 -18 -28 -45 -46 -45 -10
0 -14 13 -14 45 0 49 15 59 44 29z"/>
<path d="M2892 329 c-2 -54 18 -80 46 -62 12 7 17 25 18 59 l2 49 -7 -47 c-8
-53 -14 -63 -35 -55 -9 4 -16 23 -19 54 l-3 48 -2 -46z"/>
<path d="M3002 313 l1 -58 6 45 6 45 19 -43 c10 -23 23 -42 28 -42 4 0 7 26 6
58 l-1 57 -6 -45 -6 -45 -23 43 c-12 23 -25 42 -27 42 -3 0 -4 -26 -3 -57z"/>
<path d="M3126 354 c-32 -32 -10 -94 34 -94 22 0 50 26 50 46 0 9 -10 14 -27
13 -25 -2 -25 -2 -5 -6 26 -5 25 -21 -1 -37 -25 -16 -52 5 -52 39 0 36 27 55
55 37 11 -7 20 -8 20 -3 0 23 -53 27 -74 5z"/>
</g>
</svg>
